<?xml version="1.0" encoding="UTF-8" standalone="no"?>
<!-- Created with Inkscape (http://www.inkscape.org/) -->

<svg
   width="32"
   height="32"
   viewBox="0 0 8.4666667 8.4666667"
   version="1.1"
   id="svg5"
   inkscape:version="1.1 (c4e8f9ed74, 2021-05-24)"
   sodipodi:docname="planeD_hl.svg"
   xmlns:inkscape="http://www.inkscape.org/namespaces/inkscape"
   xmlns:sodipodi="http://sodipodi.sourceforge.net/DTD/sodipodi-0.dtd"
   xmlns="http://www.w3.org/2000/svg"
   xmlns:svg="http://www.w3.org/2000/svg">
  <sodipodi:namedview
     id="namedview7"
     pagecolor="#ffffff"
     bordercolor="#666666"
     borderopacity="1.0"
     inkscape:pageshadow="2"
     inkscape:pageopacity="0.0"
     inkscape:pagecheckerboard="0"
     inkscape:document-units="mm"
     showgrid="true"
     units="px"
     inkscape:snap-intersection-paths="true"
     inkscape:zoom="16"
     inkscape:cx="13.40625"
     inkscape:cy="19.25"
     inkscape:window-width="962"
     inkscape:window-height="1005"
     inkscape:window-x="0"
     inkscape:window-y="36"
     inkscape:window-maximized="0"
     inkscape:current-layer="layer1">
    <inkscape:grid
       type="xygrid"
       id="grid1065"
       empspacing="11"
       dotted="false" />
  </sodipodi:namedview>
  <defs
     id="defs2" />
  <g
     inkscape:label="Layer 1"
     inkscape:groupmode="layer"
     id="layer1">
    <rect
       style="fill:#000000;fill-opacity:0;stroke-width:0.251005"
       id="rect4509"
       width="0.238125"
       height="0.26458332"
       x="4.471458"
       y="0.79374999"
       ry="0.10000006" />
    <rect
       style="fill:#000000;fill-opacity:0;stroke-width:0.184735"
       id="rect4955"
       width="0.64492178"
       height="0.79374999"
       x="3.8265364"
       y="1.8520832"
       ry="0.10000006" />
    <rect
       style="fill:#000000;fill-opacity:0;stroke-width:0.251005"
       id="rect4957"
       width="1.1906251"
       height="0.79374999"
       x="3.7570832"
       y="1.3229165"
       ry="0.10000006" />
    <rect
       style="fill:#000000;fill-opacity:0;stroke-width:0.184735"
       id="rect4959"
       width="0.12898435"
       height="2.3812499"
       x="4.2134895"
       y="0.79374999"
       ry="0.10000006" />
    <rect
       style="fill:#000000;fill-opacity:0;stroke-width:0.264295"
       id="rect4961"
       width="0.52801627"
       height="1.0583333"
       x="4.7095833"
       y="1.5874999"
       ry="0.10000006" />
    <rect
       style="fill:#000000;fill-opacity:0;stroke-width:0.184735"
       id="rect4963"
       width="0.51593739"
       height="1.0583333"
       x="3.8265364"
       y="1.8520832"
       ry="0.10000006" />
    <rect
       style="fill:#000000;fill-rule:evenodd;stroke-width:0.184735"
       id="rect5078"
       width="0.12898435"
       height="0.26458332"
       x="4.2134895"
       y="1.3229165"
       ry="0.10000006" />
    <rect
       style="fill:#000000;fill-rule:evenodd;stroke-width:0.283767"
       id="rect5080"
       width="0.30434275"
       height="0.26458332"
       x="4.9735913"
       y="1.3229165"
       ry="0.10000006" />
    <rect
       style="fill:#000000;fill-rule:evenodd;stroke-width:0.184735"
       id="rect5082"
       width="0.12898435"
       height="0.26458332"
       x="4.0845051"
       y="1.5874999"
       ry="0.10000006" />
    <rect
       style="fill:#000000;fill-rule:evenodd;stroke-width:0.184735"
       id="rect5090"
       width="0.12898435"
       height="0.26458332"
       x="4.0845051"
       y="1.8520832"
       ry="0.10000006" />
    <rect
       style="fill:#000000;fill-rule:evenodd;stroke-width:0.283767"
       id="rect5097"
       width="0.30434275"
       height="0.26458332"
       x="5.2779341"
       y="1.5874999"
       ry="0.10000006" />
    <rect
       style="fill:#000000;fill-rule:evenodd;stroke-width:0.283767"
       id="rect5102"
       width="0.30434275"
       height="0.26458332"
       x="5.2779341"
       y="1.8520832"
       ry="0.10000006" />
    <rect
       style="fill:#000000;fill-rule:evenodd;stroke-width:0.184735"
       id="rect5104"
       width="0.12898435"
       height="0.26458332"
       x="3.9555209"
       y="2.1166666"
       ry="0.10000006" />
    <rect
       style="fill:#000000;fill-rule:evenodd;stroke-width:0.184735"
       id="rect5106"
       width="0.12898435"
       height="0.26458332"
       x="3.9555209"
       y="2.3812499"
       ry="0.10000006" />
    <rect
       style="fill:#000000;fill-rule:evenodd;stroke-width:0.283767"
       id="rect5108"
       width="0.30434275"
       height="0.26458332"
       x="5.5822763"
       y="2.1166666"
       ry="0.10000006" />
    <rect
       style="fill:#000000;fill-rule:evenodd;stroke-width:0.283767"
       id="rect5110"
       width="0.30434275"
       height="0.26458332"
       x="5.5822763"
       y="2.3812499"
       ry="0.10000006" />
    <rect
       style="fill:#000000;fill-rule:evenodd;stroke-width:0.184735"
       id="rect5112"
       width="0.12898435"
       height="0.26458332"
       x="3.8265364"
       y="2.645833"
       ry="0.10000006" />
    <rect
       style="fill:#000000;fill-rule:evenodd;stroke-width:0.184735"
       id="rect5114"
       width="0.12898435"
       height="0.26458332"
       x="3.8265364"
       y="2.9104164"
       ry="0.10000006" />
    <rect
       style="fill:#000000;fill-rule:evenodd;stroke-width:0.283767"
       id="rect5116"
       width="0.30434275"
       height="0.26458332"
       x="5.8866196"
       y="2.645833"
       ry="0.10000006" />
    <rect
       style="fill:#000000;fill-rule:evenodd;stroke-width:0.283767"
       id="rect5118"
       width="0.30434275"
       height="0.26458332"
       x="5.8866196"
       y="2.9104164"
       ry="0.10000006" />
    <rect
       style="fill:#000000;fill-rule:evenodd;stroke-width:0.184735"
       id="rect5120"
       width="0.12898435"
       height="0.26458332"
       x="3.6975522"
       y="3.1749997"
       ry="0.10000006" />
    <rect
       style="fill:#000000;fill-rule:evenodd;stroke-width:0.184735"
       id="rect5122"
       width="0.12898435"
       height="0.26458332"
       x="3.6975522"
       y="3.4395831"
       ry="0.10000006" />
    <rect
       style="fill:#000000;fill-rule:evenodd;stroke-width:0.283767"
       id="rect5127"
       width="0.30434275"
       height="0.26458332"
       x="6.1909623"
       y="3.1749997"
       ry="0.10000006" />
    <rect
       style="fill:#000000;fill-rule:evenodd;stroke-width:0.283767"
       id="rect5129"
       width="0.30434275"
       height="0.26458332"
       x="6.1909623"
       y="3.4395831"
       ry="0.10000006" />
    <rect
       style="fill:#000000;fill-rule:evenodd;stroke-width:0.184735"
       id="rect5131"
       width="0.12898435"
       height="0.26458332"
       x="3.5685678"
       y="3.7041664"
       ry="0.10000006" />
    <rect
       style="fill:#1a1a1a;fill-rule:evenodd;stroke-width:0.184735"
       id="rect5133"
       width="0.12898435"
       height="0.26458332"
       x="3.5685678"
       y="3.9687498"
       ry="0.10000006" />
    <rect
       style="fill:#000000;fill-rule:evenodd;stroke-width:0.283767"
       id="rect5135"
       width="0.30434275"
       height="0.26458332"
       x="6.4953055"
       y="3.7041664"
       ry="0.10000006" />
    <rect
       style="fill:#1a1a1a;fill-rule:evenodd;stroke-width:0.283767"
       id="rect5137"
       width="0.30434275"
       height="0.26458332"
       x="6.4953055"
       y="3.9687498"
       ry="0.10000006" />
    <rect
       style="fill:#1a1a1a;fill-rule:evenodd;stroke-width:0.184735"
       id="rect5139"
       width="0.12898435"
       height="0.26458332"
       x="3.4395833"
       y="4.2333336"
       ry="0.10000006" />
    <rect
       style="fill:#1a1a1a;fill-rule:evenodd;stroke-width:0.184735"
       id="rect5141"
       width="0.12898435"
       height="0.26458332"
       x="3.4395833"
       y="4.4979172"
       ry="0.10000006" />
    <rect
       style="fill:#1a1a1a;fill-rule:evenodd;stroke-width:0.184735"
       id="rect5143"
       width="0.12898435"
       height="0.26458332"
       x="3.4395833"
       y="4.7625003"
       ry="0.10000006" />
    <rect
       style="fill:#1a1a1a;fill-rule:evenodd;stroke-width:0.283767"
       id="rect5145"
       width="0.30434275"
       height="0.26458332"
       x="6.7996483"
       y="4.2333336"
       ry="0.10000006" />
    <rect
       style="fill:#1a1a1a;fill-rule:evenodd;stroke-width:0.283767"
       id="rect5147"
       width="0.30434275"
       height="0.26458332"
       x="6.7996483"
       y="4.4979172"
       ry="0.10000006" />
    <rect
       style="fill:#1a1a1a;fill-rule:evenodd;stroke-width:0.283767"
       id="rect5152"
       width="0.30434275"
       height="0.26458332"
       x="6.7996483"
       y="4.7625003"
       ry="0.10000006" />
    <rect
       style="fill:#1a1a1a;fill-rule:evenodd;stroke-width:0.184735"
       id="rect5154"
       width="0.12898435"
       height="0.26458332"
       x="3.3105991"
       y="5.0270839"
       ry="0.10000006" />
    <rect
       style="fill:#1a1a1a;fill-rule:evenodd;stroke-width:0.184735"
       id="rect5156"
       width="0.12898435"
       height="0.26458332"
       x="3.3105991"
       y="5.291667"
       ry="0.10000006" />
    <rect
       style="fill:#1a1a1a;fill-rule:evenodd;stroke-width:0.184735"
       id="rect5158"
       width="0.12898435"
       height="0.26458332"
       x="3.3105991"
       y="5.5562506"
       ry="0.10000006" />
    <rect
       style="fill:#1a1a1a;fill-rule:evenodd;stroke-width:0.283767"
       id="rect5160"
       width="0.30434275"
       height="0.26458332"
       x="7.1039906"
       y="5.0270839"
       ry="0.10000006" />
    <rect
       style="fill:#1a1a1a;fill-rule:evenodd;stroke-width:0.283767"
       id="rect5162"
       width="0.30434275"
       height="0.26458332"
       x="7.1039906"
       y="5.291667"
       ry="0.10000006" />
    <rect
       style="fill:#1a1a1a;fill-rule:evenodd;stroke-width:0.283767"
       id="rect5164"
       width="0.30434275"
       height="0.26458332"
       x="7.1039906"
       y="5.5562506"
       ry="0.10000006" />
    <rect
       style="fill:#1a1a1a;fill-rule:evenodd;stroke-width:0.184735"
       id="rect5166"
       width="0.12898435"
       height="0.26458332"
       x="3.1816149"
       y="5.8208337"
       ry="0.10000006" />
    <rect
       style="fill:#1a1a1a;fill-rule:evenodd;stroke-width:0.184735"
       id="rect5168"
       width="0.12898435"
       height="0.26458332"
       x="3.1816149"
       y="6.0854173"
       ry="0.10000006" />
    <rect
       style="fill:#1a1a1a;fill-rule:evenodd;stroke-width:0.184735"
       id="rect5170"
       width="0.12898435"
       height="0.26458332"
       x="3.1816149"
       y="6.3500004"
       ry="0.10000006" />
    <rect
       style="fill:#1a1a1a;fill-rule:evenodd;stroke-width:0.283767"
       id="rect5172"
       width="0.30434275"
       height="0.26458332"
       x="7.4083338"
       y="5.8208337"
       ry="0.10000006" />
    <rect
       style="fill:#1a1a1a;fill-rule:evenodd;stroke-width:0.283767"
       id="rect5174"
       width="0.30434275"
       height="0.26458332"
       x="7.4083338"
       y="6.0854173"
       ry="0.10000006" />
    <rect
       style="fill:#1a1a1a;fill-rule:evenodd;stroke-width:0.283767"
       id="rect5176"
       width="0.30434275"
       height="0.26458332"
       x="7.4083338"
       y="6.3500004"
       ry="0.10000006" />
    <rect
       style="fill:#1a1a1a;fill-rule:evenodd;stroke-width:0.184735"
       id="rect5178"
       width="0.12898435"
       height="0.26458332"
       x="3.1816149"
       y="6.614584"
       ry="0.10000006" />
    <rect
       style="fill:#1a1a1a;fill-rule:evenodd;stroke-width:0.283767"
       id="rect5180"
       width="0.30434275"
       height="0.26458332"
       x="7.4083338"
       y="6.614584"
       ry="0.10000006" />
    <rect
       style="fill:#1a1a1a;fill-rule:evenodd;stroke-width:0.184735"
       id="rect5444"
       width="0.12898435"
       height="0.26458332"
       x="3.0526304"
       y="6.8791671"
       ry="0.10000006" />
    <rect
       style="fill:#1a1a1a;fill-rule:evenodd;stroke-width:0.184735"
       id="rect5446"
       width="0.12898435"
       height="0.26458332"
       x="3.0526304"
       y="7.1437502"
       ry="0.10000006" />
    <rect
       style="fill:#1a1a1a;fill-rule:evenodd;stroke-width:0.184735"
       id="rect5448"
       width="0.12898435"
       height="0.26458332"
       x="3.0526304"
       y="7.4083338"
       ry="0.10000006" />
    <rect
       style="fill:#1a1a1a;fill-rule:evenodd;stroke-width:0.184735"
       id="rect5450"
       width="0.12898435"
       height="0.26458332"
       x="3.0526304"
       y="7.6729169"
       ry="0.10000006" />
    <rect
       style="fill:#1a1a1a;fill-rule:evenodd;stroke-width:0.184735"
       id="rect5452"
       width="0.12898435"
       height="0.26458332"
       x="3.0526304"
       y="7.9375005"
       ry="0.10000006" />
    <rect
       style="fill:#1a1a1a;fill-rule:evenodd;stroke-width:0.283767"
       id="rect5454"
       width="0.30434275"
       height="0.26458332"
       x="7.712676"
       y="6.8791671"
       ry="0.10000006" />
    <rect
       style="fill:#1a1a1a;fill-rule:evenodd;stroke-width:0.283767"
       id="rect5456"
       width="0.30434275"
       height="0.26458332"
       x="7.712676"
       y="7.1437502"
       ry="0.10000006" />
    <rect
       style="fill:#1a1a1a;fill-rule:evenodd;stroke-width:0.283767"
       id="rect5458"
       width="0.30434275"
       height="0.26458332"
       x="7.712676"
       y="7.4083338"
       ry="0.10000006" />
    <rect
       style="fill:#1a1a1a;fill-rule:evenodd;stroke-width:0.283767"
       id="rect5460"
       width="0.30434275"
       height="0.26458332"
       x="7.712676"
       y="7.6729169"
       ry="0.10000006" />
    <rect
       style="fill:#1a1a1a;fill-rule:evenodd;stroke-width:0.283767"
       id="rect5462"
       width="0.30434275"
       height="0.26458332"
       x="7.712676"
       y="7.9375005"
       ry="0.10000006" />
    <rect
       style="fill:#1a1a1a;fill-rule:evenodd;stroke-width:0.184735"
       id="rect5464"
       width="0.12898435"
       height="0.26458332"
       x="3.1816149"
       y="7.9375005"
       ry="0.10000006" />
    <rect
       style="fill:#1a1a1a;fill-rule:evenodd;stroke-width:0.283767"
       id="rect5469"
       width="0.30434275"
       height="0.26458332"
       x="7.4083338"
       y="7.9375005"
       ry="0.10000006" />
    <rect
       style="fill:#1a1a1a;fill-rule:evenodd;stroke-width:0.184735"
       id="rect5471"
       width="0.12898435"
       height="0.26458332"
       x="3.3105991"
       y="7.6729169"
       ry="0.10000006" />
    <rect
       style="fill:#1a1a1a;fill-rule:evenodd;stroke-width:0.184735"
       id="rect5479"
       width="0.12898435"
       height="0.26458332"
       x="3.4395833"
       y="7.6729169"
       ry="0.10000006" />
    <rect
       style="fill:#1a1a1a;fill-rule:evenodd;stroke-width:0.283767"
       id="rect5481"
       width="0.30434275"
       height="0.26458332"
       x="7.1039906"
       y="7.6729169"
       ry="0.10000006" />
    <rect
       style="fill:#1a1a1a;fill-rule:evenodd;stroke-width:0.283767"
       id="rect5485"
       width="0.30434275"
       height="0.26458332"
       x="6.7996483"
       y="7.6729169"
       ry="0.10000006" />
    <rect
       style="fill:#1a1a1a;fill-rule:evenodd;stroke-width:0.184735"
       id="rect5487"
       width="0.12898435"
       height="0.26458332"
       x="3.5685678"
       y="7.4083338"
       ry="0.10000006" />
    <rect
       style="fill:#1a1a1a;fill-rule:evenodd;stroke-width:0.184735"
       id="rect5489"
       width="0.12898435"
       height="0.26458332"
       x="3.6975522"
       y="7.4083338"
       ry="0.10000006" />
    <rect
       style="fill:#1a1a1a;fill-rule:evenodd;stroke-width:0.283767"
       id="rect5496"
       width="0.30434275"
       height="0.26458332"
       x="6.4953055"
       y="7.4083338"
       ry="0.10000006" />
    <rect
       style="fill:#1a1a1a;fill-rule:evenodd;stroke-width:0.283767"
       id="rect5498"
       width="0.30434275"
       height="0.26458332"
       x="6.1909623"
       y="7.4083338"
       ry="0.10000006" />
    <rect
       style="fill:#1a1a1a;fill-rule:evenodd;stroke-width:0.184735"
       id="rect5500"
       width="0.12898435"
       height="0.26458332"
       x="3.8265364"
       y="7.1437502"
       ry="0.10000006" />
    <rect
       style="fill:#1a1a1a;fill-rule:evenodd;stroke-width:0.184735"
       id="rect5502"
       width="0.12898435"
       height="0.26458332"
       x="3.9555209"
       y="7.1437502"
       ry="0.10000006" />
    <rect
       style="fill:#1a1a1a;fill-rule:evenodd;stroke-width:0.283767"
       id="rect5504"
       width="0.30434275"
       height="0.26458332"
       x="5.8866196"
       y="7.1437502"
       ry="0.10000006" />
    <rect
       style="fill:#1a1a1a;fill-rule:evenodd;stroke-width:0.283767"
       id="rect5509"
       width="0.30434275"
       height="0.26458332"
       x="5.5822763"
       y="7.1437502"
       ry="0.10000006" />
    <rect
       style="fill:#1a1a1a;fill-rule:evenodd;stroke-width:0.184735"
       id="rect5511"
       width="0.12898435"
       height="0.26458332"
       x="4.0845051"
       y="6.8791671"
       ry="0.10000006" />
    <rect
       style="fill:#1a1a1a;fill-rule:evenodd;stroke-width:0.184735"
       id="rect5513"
       width="0.12898435"
       height="0.26458332"
       x="4.2134895"
       y="6.614584"
       ry="0.10000006" />
    <rect
       style="fill:#1a1a1a;fill-rule:evenodd;stroke-width:0.283767"
       id="rect5515"
       width="0.30434275"
       height="0.26458332"
       x="5.2779341"
       y="6.8791671"
       ry="0.10000006" />
    <rect
       style="fill:#1a1a1a;fill-rule:evenodd;stroke-width:0.283767"
       id="rect5517"
       width="0.30434275"
       height="0.26458332"
       x="4.9735913"
       y="6.614584"
       ry="0.10000006" />
    <rect
       style="fill:#1a1a1a;fill-rule:evenodd;stroke-width:0.184735"
       id="rect5522"
       width="0.12898435"
       height="0.26458332"
       x="4.342474"
       y="6.614584"
       ry="0.10000006" />
    <rect
       style="fill:#1a1a1a;fill-rule:evenodd;stroke-width:0.264295"
       id="rect5527"
       width="0.26400813"
       height="0.26458332"
       x="4.7095833"
       y="6.614584"
       ry="0.10000006" />
    <rect
       style="fill:#1a1a1a;fill-rule:evenodd;stroke-width:0.251005"
       id="rect5535"
       width="0.238125"
       height="0.26458332"
       x="4.471458"
       y="6.3500004"
       ry="0.10000006" />
    <rect
       style="fill:#000000;fill-rule:evenodd;stroke-width:0.251005"
       id="rect5545"
       width="0.238125"
       height="0.52916664"
       x="4.471458"
       y="1.3229165"
       ry="0.10000006" />
    <rect
       style="fill:#000000;fill-rule:evenodd;stroke-width:0.251005"
       id="rect5556"
       width="0.238125"
       height="0.52916664"
       x="4.471458"
       y="2.645833"
       ry="0.10000006" />
    <rect
       style="fill:#1a1a1a;fill-rule:evenodd;stroke-width:0.251005"
       id="rect5561"
       width="0.238125"
       height="0.52916664"
       x="4.471458"
       y="4.2333336"
       ry="0.10000006" />
    <rect
       style="fill:#000000;fill-rule:evenodd;stroke-width:0.251005"
       id="rect5569"
       width="0.238125"
       height="0.26458332"
       x="4.471458"
       y="3.7041664"
       ry="0.10000006" />
    <rect
       style="fill:#000000;fill-rule:evenodd;stroke-width:0.251005"
       id="rect5574"
       width="0.238125"
       height="0.26458332"
       x="4.471458"
       y="2.1166666"
       ry="0.10000006" />
    <rect
       style="fill:#1a1a1a;fill-rule:evenodd;stroke-width:0.251005"
       id="rect5576"
       width="0.238125"
       height="0.79374999"
       x="4.471458"
       y="5.0270839"
       ry="0.10000006" />
    <rect
       style="fill:#1a1a1a;fill-rule:evenodd;stroke-width:0.251005"
       id="rect5590"
       width="0.238125"
       height="0.26458332"
       x="4.471458"
       y="6.0854173"
       ry="0.10000006" />
    <rect
       style="fill:#000000;fill-rule:evenodd;stroke-width:0.251005"
       id="rect5601"
       width="0.238125"
       height="0.52916664"
       x="4.471458"
       y="3.1749997"
       ry="0.10000006" />
    <rect
       style="fill:#1a1a1a;fill-rule:evenodd;stroke-width:0.184735"
       id="rect5606"
       width="0.12898435"
       height="0.26458332"
       x="3.0526304"
       y="8.2020836"
       ry="0.10000006" />
    <rect
       style="fill:#1a1a1a;fill-rule:evenodd;stroke-width:0.283767"
       id="rect5608"
       width="0.30434275"
       height="0.26458332"
       x="7.712676"
       y="8.2020836"
       ry="0.10000006" />
    <rect
       style="fill:#1a1a1a;fill-rule:evenodd;stroke-width:0.184735"
       id="rect5615"
       width="0.12898435"
       height="0.26458332"
       x="3.1816149"
       y="8.2020836"
       ry="0.10000006" />
    <rect
       style="fill:#1a1a1a;fill-rule:evenodd;stroke-width:0.184735"
       id="rect5620"
       width="0.12898435"
       height="0.26458332"
       x="3.4395833"
       y="7.9375005"
       ry="0.10000006" />
    <rect
       style="fill:#1a1a1a;fill-rule:evenodd;stroke-width:0.184735"
       id="rect5622"
       width="0.12898435"
       height="0.26458332"
       x="3.3105991"
       y="7.9375005"
       ry="0.10000006" />
    <rect
       style="fill:#1a1a1a;fill-rule:evenodd;stroke-width:0.184735"
       id="rect5630"
       width="0.12898435"
       height="0.26458332"
       x="3.6975522"
       y="7.6729169"
       ry="0.10000006" />
    <rect
       style="fill:#1a1a1a;fill-rule:evenodd;stroke-width:0.184735"
       id="rect5632"
       width="0.12898435"
       height="0.26458332"
       x="3.5685678"
       y="7.6729169"
       ry="0.10000006" />
    <rect
       style="fill:#1a1a1a;fill-rule:evenodd;stroke-width:0.184735"
       id="rect5634"
       width="0.12898435"
       height="0.26458332"
       x="3.8265364"
       y="7.4083338"
       ry="0.10000006"
       rx="0" />
    <rect
       style="fill:#1a1a1a;fill-rule:evenodd;stroke-width:0.184735"
       id="rect5642"
       width="0.12898435"
       height="0.26458332"
       x="3.9555209"
       y="7.4083338"
       ry="0.10000006" />
    <rect
       style="fill:#1a1a1a;fill-rule:evenodd;stroke-width:0.184735"
       id="rect5653"
       width="0.12898435"
       height="0.26458332"
       x="4.0845051"
       y="7.1437502"
       ry="0.10000006" />
    <rect
       style="fill:#1a1a1a;fill-rule:evenodd;stroke-width:0.184735"
       id="rect5658"
       width="0.12898435"
       height="0.26458332"
       x="4.342474"
       y="6.8791671"
       ry="0.10000006" />
    <rect
       style="fill:#1a1a1a;fill-rule:evenodd;stroke-width:0.184735"
       id="rect5663"
       width="0.12898435"
       height="0.26458332"
       x="4.2134895"
       y="6.8791671"
       ry="0.10000006" />
    <rect
       style="fill:#1a1a1a;fill-rule:evenodd;stroke-width:0.251005"
       id="rect5668"
       width="0.238125"
       height="0.26458332"
       x="4.471458"
       y="6.614584"
       ry="0.10000006" />
    <rect
       style="fill:#1a1a1a;fill-rule:evenodd;stroke-width:0.283767"
       id="rect5676"
       width="0.30434275"
       height="0.26458332"
       x="4.9735913"
       y="6.8791671"
       ry="0.10000006" />
    <rect
       style="fill:#1a1a1a;fill-rule:evenodd;stroke-width:0.264295"
       id="rect5678"
       width="0.26400813"
       height="0.26458332"
       x="4.7095833"
       y="6.8791671"
       ry="0.10000006" />
    <rect
       style="fill:#1a1a1a;fill-rule:evenodd;stroke-width:0.283767"
       id="rect5742"
       width="0.30434275"
       height="0.26458332"
       x="7.4083338"
       y="8.2020836"
       ry="0.10000006" />
    <rect
       style="fill:#1a1a1a;fill-rule:evenodd;stroke-width:0.283767"
       id="rect5744"
       width="0.30434275"
       height="0.26458332"
       x="7.1039906"
       y="7.9375005"
       ry="0.10000006" />
    <rect
       style="fill:#1a1a1a;fill-rule:evenodd;stroke-width:0.283767"
       id="rect5746"
       width="0.30434275"
       height="0.26458332"
       x="6.7996483"
       y="7.9375005"
       ry="0.10000006" />
    <rect
       style="fill:#1a1a1a;fill-rule:evenodd;stroke-width:0.283767"
       id="rect5751"
       width="0.30434275"
       height="0.26458332"
       x="6.4953055"
       y="7.6729169"
       ry="0.10000006" />
    <rect
       style="fill:#1a1a1a;fill-rule:evenodd;stroke-width:0.283767"
       id="rect5753"
       width="0.30434275"
       height="0.26458332"
       x="6.1909623"
       y="7.6729169"
       ry="0.10000006" />
    <rect
       style="fill:#1a1a1a;fill-rule:evenodd;stroke-width:0.283767"
       id="rect5755"
       width="0.30434275"
       height="0.26458332"
       x="5.8866196"
       y="7.4083338"
       ry="0.10000006" />
    <rect
       style="fill:#1a1a1a;fill-rule:evenodd;stroke-width:0.283767"
       id="rect5757"
       width="0.30434275"
       height="0.26458332"
       x="5.5822763"
       y="7.4083338"
       ry="0.10000006" />
    <rect
       style="fill:#1a1a1a;fill-rule:evenodd;stroke-width:0.283767"
       id="rect5762"
       width="0.30434275"
       height="0.26458332"
       x="5.2779341"
       y="7.1437502"
       ry="0.10000006" />
    <rect
       style="fill:#000000;fill-rule:evenodd;stroke-width:0.184735"
       id="rect6275"
       width="0.12898435"
       height="0.26458332"
       x="4.342474"
       y="0.79374999"
       ry="0.10000006" />
    <rect
       style="fill:#000000;fill-rule:evenodd;stroke-width:0.264295"
       id="rect6283"
       width="0.26400813"
       height="0.26458332"
       x="4.7095833"
       y="0.79374999"
       ry="0.10000006" />
    <rect
       style="fill:#000000;fill-rule:evenodd;stroke-width:0.184735"
       id="rect6310"
       width="0.12898435"
       height="0.26458332"
       x="4.2134895"
       y="1.0583332"
       ry="0.10000006" />
    <rect
       style="fill:#000000;fill-rule:evenodd;stroke-width:0.283767"
       id="rect6312"
       width="0.30434275"
       height="0.26458332"
       x="4.9735913"
       y="1.0583332"
       ry="0.10000006" />
    <path
       style="fill:#1a1a1a;fill-opacity:0;stroke-width:0.264583"
       id="path6777"
       d="m 0.2638025,-2.3388516 c -0.0168781,-0.00549 -0.0359142,-0.00655 -0.0506344,-0.01646 -0.0218177,-0.014694 -0.0374291,-0.03697 -0.0561437,-0.055455 -0.5904726,0.3538878 -1.2031228,0.6731596 -1.7714178,1.0616635 -0.062215,0.042532 -0.073451,0.1345724 -0.086885,0.2087287 -0.032748,0.18077048 0.00533,0.64666868 0.013162,0.79450639 0.067537,0.68214551 0.1278933,1.37277121 0.3206457,2.03434951 0.084213,0.2890413 0.1982294,0.568584 0.3022271,0.8511103 0.35694698,0.9697026 0.35004729,0.9217728 0.75795922,1.8912209 0.15823562,0.3191748 0.28977273,0.6530406 0.47470687,0.9575244 0.19802865,0.3260434 0.43538178,0.6270067 0.67025658,0.927595 0.53237853,0.6813286 0.93991783,1.1257309 1.58426803,1.7024607 0.2818328,0.2522564 0.5675111,0.5026128 0.877122,0.7198778 0.3149875,0.2210382 0.6609638,0.3942421 0.9914459,0.591363 0.304161,0.165916 0.5971076,0.3542893 0.9124833,0.497748 0.3076519,0.1399455 0.6309119,0.2433474 0.9515705,0.3501774 0.2940841,0.09798 0.5928156,0.181706 0.8916895,0.263921 0.5294923,0.145652 0.993989,0.259702 1.5368656,0.331533 0.2176478,0.0288 0.4375843,0.03633 0.6563765,0.05449 0.8593896,-0.07653 0.4251851,0.01376 1.2976736,-0.293602 0,0 0.06456,-0.04724 0.06456,-0.04724 v 0 C 10.530706,10.143679 10.627221,10.293307 10.18008,10.158735 9.2994992,10.049824 9.7685816,10.104476 8.7725156,9.9975235 8.4690036,9.9610462 8.1645047,9.929947 7.8632329,9.8781268 7.5390014,9.8223574 7.2150242,9.760674 6.897385,9.6749914 6.041755,9.4441869 5.7436805,9.2768091 4.9255653,8.9195311 4.1116702,8.4084434 3.7988007,8.2590599 3.0765318,7.6166931 2.5491711,7.1476726 1.945331,6.4868043 1.5510101,5.8996966 1.1266551,5.267871 0.86930658,4.6370795 0.55447096,3.9510723 0.43916629,3.6214481 0.30932879,3.2965532 0.20855692,2.9621998 -0.0192667,2.2062978 -0.07785119,1.829155 -0.17519695,1.0570976 c -0.0604336,-0.47930418 -0.11527427,-1.02411631 -0.0900868,-1.51053935 0.0110328,-0.21306609 0.0535251,-0.42333269 0.0802877,-0.63499905 0.13214414,-0.4678659 0.10623228,-0.4861314 0.31558626,-0.8753651 0.0293356,-0.054541 0.16077721,-0.1804482 0.10519265,-0.1531414 -0.54713838,0.2687906 -1.0577978,0.60699 -1.59922406,0.8871084 -0.037408,0.019354 0.045778,-0.072086 0.077489,-0.099806 0.00748,-0.00653 0.019349,0.00446 0.029024,0.0067 0,0 1.52073118,-1.0159034 1.52073118,-1.0159035 z" />
    <rect
       style="fill:#000000;fill-rule:evenodd;stroke-width:0.251005"
       id="rect8667"
       width="0.238125"
       height="0.26458332"
       x="4.471458"
       y="0.26458323"
       ry="0.10000006" />
    <rect
       style="fill:#000000;fill-rule:evenodd;stroke-width:0.184735"
       id="rect8669"
       width="0.12898435"
       height="0.26458332"
       x="4.342474"
       y="0.52916652"
       ry="0.10000006" />
    <rect
       style="fill:#000000;fill-rule:evenodd;stroke-width:0.264295"
       id="rect8677"
       width="0.26400813"
       height="0.26458332"
       x="4.7095833"
       y="0.52916652"
       ry="0.10000006" />
    <rect
       style="fill:#000000;fill-rule:evenodd;stroke-width:0.251005"
       id="rect9117"
       width="0.238125"
       height="0.26458332"
       x="4.471458"
       y="-1.9073487e-07"
       ry="0.10000006" />
  </g>
</svg>
